<svg width="927" height="290" viewBox="0 0 927 290" fill="none" xmlns="http://www.w3.org/2000/svg">
<path d="M174.494 0.859347C183.16 -0.20732 191.96 0.0593468 200.76 0.19268C212.627 0.326013 223.96 5.12601 234.894 9.52601C245.56 13.926 254.627 21.526 262.76 29.6593C277.96 44.8593 287.694 65.3927 290.627 86.5927C291.16 99.2594 291.827 112.193 287.96 124.459C285.96 130.726 284.227 137.259 281.027 143.126C275.027 153.526 268.36 163.793 259.294 171.793C251.027 180.726 239.694 185.659 228.894 190.726C219.16 195.126 208.627 197.926 197.96 197.926C188.494 198.059 178.76 198.459 169.427 196.059C160.894 193.793 152.36 190.859 144.494 186.593C138.627 183.526 133.294 179.259 127.294 176.326C121.427 181.393 115.694 186.593 110.76 192.593C109.56 198.059 113.027 204.059 110.227 209.393C107.827 213.926 104.094 217.393 100.627 221.126C79.5602 241.793 58.7602 262.859 37.9602 283.793C29.0269 292.993 12.4936 290.326 5.16023 280.593C0.626898 274.726 -1.63977 266.459 1.56023 259.526C4.49357 252.993 9.69357 248.059 14.6269 243.126C27.5602 230.326 40.3602 217.259 53.2936 204.459C61.2936 196.459 68.3602 187.526 77.0269 180.059C82.2269 175.259 90.0936 179.259 96.0936 176.726C101.96 172.059 107.56 166.726 112.227 160.726C111.16 155.126 106.094 151.126 103.96 145.926C94.4936 126.326 88.8936 103.793 93.5602 81.926C97.0269 61.926 107.427 43.2593 121.427 28.5927C126.227 22.9927 132.494 18.9927 138.76 15.2593C149.827 8.72601 161.694 2.85935 174.494 0.859347ZM177.16 20.726C167.427 22.4593 158.094 26.4593 149.694 31.526C131.56 43.7927 116.894 62.5927 113.694 84.5927C111.96 100.993 112.094 118.593 120.094 133.659C125.56 143.393 131.16 153.259 139.96 160.459C155.427 172.859 175.56 179.393 195.294 178.059C214.894 178.459 233.16 168.726 247.294 155.793C255.56 148.459 261.294 138.726 265.427 128.593C277.427 100.593 270.36 66.1927 249.427 44.326C238.627 32.5927 223.694 25.2593 208.494 21.3927C198.227 19.3927 187.56 19.926 177.16 20.726Z" fill="white" stroke="white" stroke-width="0.125"/>
<path d="M175.827 50.4596C185.96 49.1262 196.094 49.7929 206.227 49.7929C207.16 51.6596 208.094 53.6596 207.96 55.7929C208.36 64.8596 207.427 73.9262 208.227 82.9929C218.894 84.1929 229.827 82.1929 240.494 83.9262C241.827 94.0596 241.427 104.46 240.76 114.726C229.96 116.193 219.027 114.593 208.227 115.393C207.16 125.66 208.76 136.06 207.427 146.326C207.027 146.86 206.36 147.793 205.96 148.326C195.96 148.726 185.694 149.126 175.827 147.926C175.16 137.26 176.36 126.593 174.894 115.926C164.227 114.46 153.294 115.926 142.494 115.126C142.094 104.86 142.227 94.4596 142.494 84.0596C153.16 82.1929 164.094 83.9262 174.894 83.1262C176.627 72.3262 175.16 61.3929 175.827 50.4596Z" fill="white" stroke="white" stroke-width="0.125"/>
<path d="M490.894 66.0596C498.227 65.3929 505.694 65.3929 513.027 66.0596C513.56 92.4596 513.027 118.726 513.16 145.126C513.027 155.526 513.56 165.793 513.027 176.193C505.694 176.86 498.227 176.993 491.027 176.06C490.36 143.526 491.027 110.993 490.627 78.4596C490.494 74.3262 490.627 70.1929 490.894 66.0596Z" fill="white" stroke="white" stroke-width="0.125"/>
<path d="M661.16 66.5928C667.96 65.6595 674.894 64.9928 681.56 66.8595C683.16 69.5262 682.494 72.8595 682.76 75.7928C682.494 101.126 682.627 126.459 682.627 151.793C682.627 159.926 683.027 168.059 682.36 176.059C676.494 176.726 670.627 176.859 664.894 176.059C663.694 173.793 662.494 171.793 661.294 169.659C656.627 172.459 652.36 176.459 646.76 177.659C640.227 178.859 633.027 178.06 627.56 174.193C618.894 168.326 613.96 158.059 613.027 147.793C611.16 133.659 612.494 117.926 621.96 106.459C626.227 100.593 633.294 96.8595 640.627 97.3928C648.094 96.5928 654.627 100.726 660.894 104.059C661.56 91.5262 660.76 79.1262 661.16 66.5928ZM642.627 115.526C636.76 117.126 634.894 123.793 634.36 129.126C633.427 138.193 632.76 148.193 637.427 156.326C640.227 161.126 646.36 161.126 651.16 160.593C655.96 160.46 660.094 156.326 660.627 151.659C661.56 144.593 661.027 137.526 661.294 130.459C661.027 126.326 661.694 121.259 658.227 118.193C654.094 114.193 647.694 114.326 642.627 115.526Z" fill="white" stroke="white" stroke-width="0.125"/>
<path d="M345.694 70.5928C358.36 68.3262 372.36 69.5262 382.894 77.5262C391.56 82.8595 395.827 93.1262 394.894 102.993C388.227 103.126 381.56 103.659 374.894 102.726C372.227 99.5262 372.227 94.4595 368.894 91.3928C364.627 87.2595 358.094 87.7928 352.627 88.1928C346.094 88.4595 339.427 94.0595 340.36 101.126C340.894 107.259 347.294 110.059 352.227 112.193C363.694 116.326 375.56 119.793 385.694 126.859C400.36 136.859 399.56 162.193 384.227 171.26C374.894 176.993 363.427 178.193 352.627 177.793C340.627 177.126 327.96 172.459 320.894 162.193C317.427 156.859 315.16 150.326 316.36 143.926C322.76 143.393 329.694 141.926 335.827 144.593C338.894 150.059 340.36 157.793 347.427 159.526C354.494 161.259 363.16 162.326 369.56 158.059C374.494 154.993 374.227 148.326 372.894 143.393C370.494 138.459 364.76 136.859 360.094 134.993C346.894 130.726 332.894 126.459 323.294 115.793C317.694 109.793 317.694 100.993 318.76 93.3928C321.827 80.9928 334.094 73.5262 345.694 70.5928Z" fill="white" stroke="white" stroke-width="0.125"/>
<path d="M702.494 71.9261C710.627 70.5928 719.027 71.3928 727.294 71.2594C738.76 71.3928 750.494 70.0594 761.56 73.7928C771.027 76.8594 778.627 84.3261 781.694 93.7928C788.094 109.926 779.694 131.126 762.894 136.726C750.76 140.993 737.694 139.926 725.027 140.326C722.76 152.326 726.627 164.593 724.094 176.593C717.027 177.926 709.694 177.793 702.627 176.459C702.36 141.659 702.494 106.726 702.494 71.9261ZM725.694 88.8594C724.494 99.5261 725.027 110.326 725.16 121.126C731.56 122.059 738.227 121.793 744.627 121.659C749.027 121.393 753.694 120.593 756.76 117.259C761.827 112.726 762.094 104.993 760.227 98.8594C758.627 92.5928 751.827 89.2594 745.827 88.8594C739.027 88.4594 732.36 88.3261 725.694 88.8594Z" fill="white" stroke="white" stroke-width="0.125"/>
<path d="M830.894 98.3261C835.16 96.8594 839.694 97.3928 843.96 97.6594C845.16 104.726 845.427 111.926 844.094 118.993C836.76 119.393 827.427 117.259 821.96 123.659C818.894 131.793 820.894 140.726 820.76 149.126C820.76 158.326 821.56 167.526 820.227 176.593C813.16 176.993 806.227 176.859 799.294 176.593C797.96 166.593 799.027 156.459 798.627 146.459C799.027 130.593 797.96 114.726 799.294 98.8594C805.294 98.7261 811.427 98.3261 817.427 99.1261C819.96 99.5261 820.227 102.726 821.56 104.459C824.494 102.326 827.427 99.7928 830.894 98.3261Z" fill="white" stroke="white" stroke-width="0.125"/>
<path d="M877.16 98.0596C887.427 96.9929 899.027 95.7929 908.094 101.66C915.96 106.726 922.494 114.593 924.627 123.793C927.96 137.26 927.16 152.86 918.36 164.06C911.96 173.126 900.894 177.926 889.96 177.926C878.227 178.86 866.494 173.126 858.76 164.326C850.894 153.26 849.827 138.46 852.494 125.393C854.894 112.86 864.494 101.26 877.16 98.0596ZM882.76 115.393C871.56 121.793 872.227 136.193 873.56 147.126C874.76 152.993 877.96 160.06 884.76 160.593C889.694 161.126 895.827 161.393 899.16 157.126C905.294 149.66 904.494 139.393 904.094 130.46C903.96 124.326 900.894 117.526 894.76 115.393C890.76 114.46 886.494 114.193 882.76 115.393Z" fill="white" stroke="white" stroke-width="0.125"/>
<path d="M421.16 102.993C429.56 97.5262 440.227 97.1262 449.96 98.1929C461.56 99.5262 472.494 109.126 473.027 121.26C474.094 139.526 471.694 157.926 475.694 176.06C469.427 176.46 463.16 177.126 456.894 175.926C454.494 174.86 453.56 171.926 452.094 170.06C446.76 173.926 441.027 178.46 433.96 178.06C423.96 179.26 413.694 173.126 409.427 164.06C406.094 155.126 407.827 143.66 415.694 137.526C422.494 132.593 430.76 129.66 439.294 129.66C443.56 129.66 447.827 129.26 451.96 128.06C451.827 124.06 451.96 119.66 449.16 116.46C445.694 112.46 439.56 112.993 434.894 114.193C432.227 116.326 430.76 119.66 427.96 121.793C422.227 123.66 416.094 122.86 410.36 121.793C409.56 113.926 414.627 106.993 421.16 102.993ZM431.16 146.193C428.094 149.126 428.627 154.06 429.427 157.793C434.494 164.326 446.227 163.126 450.76 156.593C453.027 151.793 452.227 146.326 451.027 141.393C444.227 139.526 436.227 141.126 431.16 146.193Z" fill="white" stroke="white" stroke-width="0.125"/>
<path d="M530.627 98.9928C537.427 97.6595 544.36 97.7928 551.294 98.8595C552.894 116.459 551.16 134.059 551.96 151.659C552.36 156.059 555.827 160.859 560.627 160.726C565.294 160.993 570.627 160.859 574.227 157.393C576.627 155.393 576.094 152.059 576.36 149.259C576.36 136.326 576.36 123.393 576.094 110.459C576.094 106.593 576.36 102.726 577.027 98.9928C584.094 98.4595 591.294 98.1928 598.494 99.2595C599.16 109.126 598.494 119.126 598.627 129.126C598.627 144.859 598.894 160.726 598.627 176.459C592.094 176.726 585.56 176.859 579.16 176.193C578.36 173.926 577.56 171.793 576.894 169.526C571.694 172.859 566.894 177.393 560.494 177.926C555.427 178.326 550.094 178.459 545.427 176.193C536.894 171.926 530.227 162.993 530.494 153.259C530.627 135.126 530.36 116.993 530.627 98.9928Z" fill="white" stroke="white" stroke-width="0.125"/>
</svg>
