<?xml version="1.0" encoding="UTF-8" ?>
<!DOCTYPE svg PUBLIC "-//W3C//DTD SVG 1.1//EN" "http://www.w3.org/Graphics/SVG/1.1/DTD/svg11.dtd">
<svg width="715pt" height="239pt" viewBox="0 0 715 239" version="1.1" xmlns="http://www.w3.org/2000/svg">
<path fill="#153c87" stroke="#153c87" stroke-width="0.09375" opacity="1.00" d=" M 140.4 13.8 C 146.9 13.0 153.5 13.2 160.1 13.3 C 169.0 13.4 177.5 17.0 185.7 20.3 C 193.7 23.6 200.5 29.3 206.6 35.4 C 218.0 46.8 225.3 62.2 227.5 78.1 C 227.9 87.6 228.4 97.3 225.5 106.5 C 224.0 111.2 222.7 116.1 220.3 120.5 C 215.8 128.3 210.8 136.0 204.0 142.0 C 197.8 148.7 189.3 152.4 181.2 156.2 C 173.9 159.5 166.0 161.6 158.0 161.6 C 150.9 161.7 143.6 162.0 136.6 160.2 C 130.2 158.5 123.8 156.3 117.9 153.1 C 113.5 150.8 109.5 147.6 105.0 145.4 C 100.6 149.2 96.3 153.1 92.6 157.6 C 91.7 161.7 94.3 166.2 92.2 170.2 C 90.4 173.6 87.6 176.2 85.0 179.0 C 69.2 194.5 53.6 210.3 38.0 226.0 C 31.3 232.9 18.9 230.9 13.4 223.6 C 10.0 219.2 8.3 213.0 10.7 207.8 C 12.9 202.9 16.8 199.2 20.5 195.5 C 30.2 185.9 39.8 176.1 49.5 166.5 C 55.5 160.5 60.8 153.8 67.3 148.2 C 71.2 144.6 77.1 147.6 81.6 145.7 C 86.0 142.2 90.2 138.2 93.7 133.7 C 92.9 129.5 89.1 126.5 87.5 122.6 C 80.4 107.9 76.2 91.0 79.7 74.6 C 82.3 59.6 90.1 45.6 100.6 34.6 C 104.2 30.4 108.9 27.4 113.6 24.6 C 121.9 19.7 130.8 15.3 140.4 13.8 M 142.4 28.7 C 135.1 30.0 128.1 33.0 121.8 36.8 C 108.2 46.0 97.2 60.1 94.8 76.6 C 93.5 88.9 93.6 102.1 99.6 113.4 C 103.7 120.7 107.9 128.1 114.5 133.5 C 126.1 142.8 141.2 147.7 156.0 146.7 C 170.7 147.0 184.4 139.7 195.0 130.0 C 201.2 124.5 205.5 117.2 208.6 109.6 C 217.6 88.6 212.3 62.8 196.6 46.4 C 188.5 37.6 177.3 32.1 165.9 29.2 C 158.2 27.7 150.2 28.1 142.4 28.7 Z" />
<path fill="#50b758" stroke="#50b758" stroke-width="0.09375" opacity="1.00" d=" M 141.4 51.0 C 149.0 50.0 156.6 50.5 164.2 50.5 C 164.9 51.9 165.6 53.4 165.5 55.0 C 165.8 61.8 165.1 68.6 165.7 75.4 C 173.7 76.3 181.9 74.8 189.9 76.1 C 190.9 83.7 190.6 91.5 190.1 99.2 C 182.0 100.3 173.8 99.1 165.7 99.7 C 164.9 107.4 166.1 115.2 165.1 122.9 C 164.8 123.3 164.3 124.0 164.0 124.4 C 156.5 124.7 148.8 125.0 141.4 124.1 C 140.9 116.1 141.8 108.1 140.7 100.1 C 132.7 99.0 124.5 100.1 116.4 99.5 C 116.1 91.8 116.2 84.0 116.4 76.2 C 124.4 74.8 132.6 76.1 140.7 75.5 C 142.0 67.4 140.9 59.2 141.4 51.0 Z" />
<path fill="#153c87" stroke="#153c87" stroke-width="0.09375" opacity="1.00" d=" M 377.7 62.7 C 383.2 62.2 388.8 62.2 394.3 62.7 C 394.7 82.5 394.3 102.2 394.4 122.0 C 394.3 129.8 394.7 137.5 394.3 145.3 C 388.8 145.8 383.2 145.9 377.8 145.2 C 377.3 120.8 377.8 96.4 377.5 72.0 C 377.4 68.9 377.5 65.8 377.7 62.7 Z" />
<path fill="#153c87" stroke="#153c87" stroke-width="0.09375" opacity="1.00" d=" M 505.4 63.1 C 510.5 62.4 515.7 61.9 520.7 63.3 C 521.9 65.3 521.4 67.8 521.6 70.0 C 521.4 89.0 521.5 108.0 521.5 127.0 C 521.5 133.1 521.8 139.2 521.3 145.2 C 516.9 145.7 512.5 145.8 508.2 145.2 C 507.3 143.5 506.4 142.0 505.5 140.4 C 502.0 142.5 498.8 145.5 494.6 146.4 C 489.7 147.3 484.3 146.7 480.2 143.8 C 473.7 139.4 470.0 131.7 469.3 124.0 C 467.9 113.4 468.9 101.6 476.0 93.0 C 479.2 88.6 484.5 85.8 490.0 86.2 C 495.6 85.6 500.5 88.7 505.2 91.2 C 505.7 81.8 505.1 72.5 505.4 63.1 M 491.5 99.8 C 487.1 101.0 485.7 106.0 485.3 110.0 C 484.6 116.8 484.1 124.3 487.6 130.4 C 489.7 134.0 494.3 134.0 497.9 133.6 C 501.5 133.5 504.6 130.4 505.0 126.9 C 505.7 121.6 505.3 116.3 505.5 111.0 C 505.3 107.9 505.8 104.1 503.2 101.8 C 500.1 98.8 495.3 98.9 491.5 99.8 Z" />
<path fill="#153c87" stroke="#153c87" stroke-width="0.09375" opacity="1.00" d=" M 268.8 66.1 C 278.3 64.4 288.8 65.3 296.7 71.3 C 303.2 75.3 306.4 83.0 305.7 90.4 C 300.7 90.5 295.7 90.9 290.7 90.2 C 288.7 87.8 288.7 84.0 286.2 81.7 C 283.0 78.6 278.1 79.0 274.0 79.3 C 269.1 79.5 264.1 83.7 264.8 89.0 C 265.2 93.6 270.0 95.7 273.7 97.3 C 282.3 100.4 291.2 103.0 298.8 108.3 C 309.8 115.8 309.2 134.8 297.7 141.6 C 290.7 145.9 282.1 146.8 274.0 146.5 C 265.0 146.0 255.5 142.5 250.2 134.8 C 247.6 130.8 245.9 125.9 246.8 121.1 C 251.6 120.7 256.8 119.6 261.4 121.6 C 263.7 125.7 264.8 131.5 270.1 132.8 C 275.4 134.1 281.9 134.9 286.7 131.7 C 290.4 129.4 290.2 124.4 289.2 120.7 C 287.4 117.0 283.1 115.8 279.6 114.4 C 269.7 111.2 259.2 108.0 252.0 100.0 C 247.8 95.5 247.8 88.9 248.6 83.2 C 250.9 73.9 260.1 68.3 268.8 66.1 Z" />
<path fill="#50b758" stroke="#50b758" stroke-width="0.09375" opacity="1.00" d=" M 536.4 67.1 C 542.5 66.1 548.8 66.7 555.0 66.6 C 563.6 66.7 572.4 65.7 580.7 68.5 C 587.8 70.8 593.5 76.4 595.8 83.5 C 600.6 95.6 594.3 111.5 581.7 115.7 C 572.6 118.9 562.8 118.1 553.3 118.4 C 551.6 127.4 554.5 136.6 552.6 145.6 C 547.3 146.6 541.8 146.5 536.5 145.5 C 536.3 119.4 536.4 93.2 536.4 67.1 M 553.8 79.8 C 552.9 87.8 553.3 95.9 553.4 104.0 C 558.2 104.7 563.2 104.5 568.0 104.4 C 571.3 104.2 574.8 103.6 577.1 101.1 C 580.9 97.7 581.1 91.9 579.7 87.3 C 578.5 82.6 573.4 80.1 568.9 79.8 C 563.8 79.5 558.8 79.4 553.8 79.8 Z" />
<path fill="#50b758" stroke="#50b758" stroke-width="0.09375" opacity="1.00" d=" M 632.7 86.9 C 635.9 85.8 639.3 86.2 642.5 86.4 C 643.4 91.7 643.6 97.1 642.6 102.4 C 637.1 102.7 630.1 101.1 626.0 105.9 C 623.7 112.0 625.2 118.7 625.1 125.0 C 625.1 131.9 625.7 138.8 624.7 145.6 C 619.4 145.9 614.2 145.8 609.0 145.6 C 608.0 138.1 608.8 130.5 608.5 123.0 C 608.8 111.1 608.0 99.2 609.0 87.3 C 613.5 87.2 618.1 86.9 622.6 87.5 C 624.5 87.8 624.7 90.2 625.7 91.5 C 627.9 89.9 630.1 88.0 632.7 86.9 Z" />
<path fill="#50b758" stroke="#50b758" stroke-width="0.09375" opacity="1.00" d=" M 667.4 86.7 C 675.1 85.9 683.8 85.0 690.6 89.4 C 696.5 93.2 701.4 99.1 703.0 106.0 C 705.5 116.1 704.9 127.8 698.3 136.2 C 693.5 143.0 685.2 146.6 677.0 146.6 C 668.2 147.3 659.4 143.0 653.6 136.4 C 647.7 128.1 646.9 117.0 648.9 107.2 C 650.7 97.8 657.9 89.1 667.4 86.7 M 671.6 99.7 C 663.2 104.5 663.7 115.3 664.7 123.5 C 665.6 127.9 668.0 133.2 673.1 133.6 C 676.8 134.0 681.4 134.2 683.9 131.0 C 688.5 125.4 687.9 117.7 687.6 111.0 C 687.5 106.4 685.2 101.3 680.6 99.7 C 677.6 99.0 674.4 98.8 671.6 99.7 Z" />
<path fill="#153c87" stroke="#153c87" stroke-width="0.09375" opacity="1.00" d=" M 325.4 90.4 C 331.7 86.3 339.7 86.0 347.0 86.8 C 355.7 87.8 363.9 95.0 364.3 104.1 C 365.1 117.8 363.3 131.6 366.3 145.2 C 361.6 145.5 356.9 146.0 352.2 145.1 C 350.4 144.3 349.7 142.1 348.6 140.7 C 344.6 143.6 340.3 147.0 335.0 146.7 C 327.5 147.6 319.8 143.0 316.6 136.2 C 314.1 129.5 315.4 120.9 321.3 116.3 C 326.4 112.6 332.6 110.4 339.0 110.4 C 342.2 110.4 345.4 110.1 348.5 109.2 C 348.4 106.2 348.5 102.9 346.4 100.5 C 343.8 97.5 339.2 97.9 335.7 98.8 C 333.7 100.4 332.6 102.9 330.5 104.5 C 326.2 105.9 321.6 105.3 317.3 104.5 C 316.7 98.6 320.5 93.4 325.4 90.4 M 332.9 122.8 C 330.6 125.0 331.0 128.7 331.6 131.5 C 335.4 136.4 344.2 135.5 347.6 130.6 C 349.3 127.0 348.7 122.9 347.8 119.2 C 342.7 117.8 336.7 119.0 332.9 122.8 Z" />
<path fill="#153c87" stroke="#153c87" stroke-width="0.09375" opacity="1.00" d=" M 407.5 87.4 C 412.6 86.4 417.8 86.5 423.0 87.3 C 424.2 100.5 422.9 113.7 423.5 126.9 C 423.8 130.2 426.4 133.8 430.0 133.7 C 433.5 133.9 437.5 133.8 440.2 131.2 C 442.0 129.7 441.6 127.2 441.8 125.1 C 441.8 115.4 441.8 105.7 441.6 96.0 C 441.6 93.1 441.8 90.2 442.3 87.4 C 447.6 87.0 453.0 86.8 458.4 87.6 C 458.9 95.0 458.4 102.5 458.5 110.0 C 458.5 121.8 458.7 133.7 458.5 145.5 C 453.6 145.7 448.7 145.8 443.9 145.3 C 443.3 143.6 442.7 142.0 442.2 140.3 C 438.3 142.8 434.7 146.2 429.9 146.6 C 426.1 146.9 422.1 147.0 418.6 145.3 C 412.2 142.1 407.2 135.4 407.4 128.1 C 407.5 114.5 407.3 100.9 407.5 87.4 Z" />
</svg>
